#N canvas 85 135 604 384 10;
#X obj 71 90 timer;
#X obj 159 90 cputime;
#X obj 232 93 realtime;
#X obj 63 -121 tgl 15 0 empty empty empty 17 7 0 10 -262144 -1 -1 0
1;
#X obj 177 -35 metro 500;
#X obj 371 70 s el_time;
#X obj 178 1 t b b b b b b;
#X obj 362 21 nth;
#X msg 377 -7 5000 1000 200 100 50 10 5 3;
#X obj 362 -61 hradio 20 1 0 8 empty empty empty 0 -8 0 10 -262144
-1 -1 0;
#X obj 377 -32 loadbang;
#X obj 348 -32 + 1;
#X obj 20 33 s reset;
#X floatatom 377 47 5 0 0 0 - - -;
#X obj 20 4 sel 0;
#X obj 56 128 spigot;
#X obj 172 140 spigot;
#X obj 283 143 spigot;
#X obj 63 -86 t f f f f f;
#X obj 37 188 save_data metro_timer;
#X obj 179 190 save_data metro_cputime;
#X obj 334 183 save_data metro_realtime;
#X obj 228 -61 r el_time;
#X connect 0 0 15 0;
#X connect 1 0 16 0;
#X connect 2 0 17 0;
#X connect 3 0 18 0;
#X connect 4 0 6 0;
#X connect 6 0 0 0;
#X connect 6 1 0 1;
#X connect 6 2 1 0;
#X connect 6 3 1 1;
#X connect 6 4 2 0;
#X connect 6 5 2 1;
#X connect 7 0 5 0;
#X connect 7 0 13 0;
#X connect 8 0 7 1;
#X connect 9 0 11 0;
#X connect 10 0 8 0;
#X connect 11 0 7 0;
#X connect 14 0 12 0;
#X connect 15 0 19 0;
#X connect 16 0 20 0;
#X connect 17 0 21 0;
#X connect 18 0 14 0;
#X connect 18 1 15 1;
#X connect 18 2 16 1;
#X connect 18 3 17 1;
#X connect 18 4 4 0;
#X connect 22 0 4 1;
