#N canvas 43 286 558 370 10;
#X obj -343 -9 timer;
#X obj -255 -9 cputime;
#X obj -182 -6 realtime;
#X obj -351 -220 tgl 15 0 empty empty empty 17 7 0 10 -262144 -1 -1
1 1;
#X obj -60 -64 s el_time;
#X obj -238 -53 t b b b b b b;
#X obj -69 -113 nth;
#X msg -54 -141 5000 1000 200 100 50 10 5 3;
#X obj -69 -195 hradio 20 1 0 8 empty empty empty 0 -8 0 10 -262144
-1 -1 0;
#X obj -54 -166 loadbang;
#X obj -83 -166 + 1;
#X obj -394 -66 s reset;
#X floatatom -54 -87 5 0 0 0 - - -;
#X obj -394 -95 sel 0;
#X obj -358 29 spigot;
#X obj -242 41 spigot;
#X obj -131 44 spigot;
#X obj -186 -160 r el_time;
#X obj -220 -93 del 500;
#X obj -237 -160 sel 1;
#X obj -149 -132 spigot;
#X obj -377 89 save_data delay_timer;
#X obj -235 91 save_data delay_cputime;
#X obj -80 84 save_data delay_realtime;
#X obj -351 -188 t f f f f f f;
#X obj -238 -136 t b b;
#X connect 0 0 14 0;
#X connect 1 0 15 0;
#X connect 2 0 16 0;
#X connect 3 0 24 0;
#X connect 5 0 0 0;
#X connect 5 1 0 1;
#X connect 5 2 1 0;
#X connect 5 3 1 1;
#X connect 5 4 2 0;
#X connect 5 5 2 1;
#X connect 6 0 4 0;
#X connect 6 0 12 0;
#X connect 7 0 6 1;
#X connect 8 0 10 0;
#X connect 9 0 7 0;
#X connect 10 0 6 0;
#X connect 13 0 11 0;
#X connect 14 0 21 0;
#X connect 15 0 22 0;
#X connect 16 0 23 0;
#X connect 17 0 18 1;
#X connect 18 0 5 0;
#X connect 18 0 20 0;
#X connect 19 0 25 0;
#X connect 20 0 18 0;
#X connect 24 0 13 0;
#X connect 24 1 14 1;
#X connect 24 2 15 1;
#X connect 24 3 16 1;
#X connect 24 4 19 0;
#X connect 24 5 20 1;
#X connect 25 0 5 0;
#X connect 25 1 18 0;
