#N canvas 0 22 450 300 10;
#X msg 169 132 \$6;
#X msg 140 13 set \, adddollar \$1;
#X obj 140 39 t b a;
#X obj 216 90 list;
#X obj 140 -21 inlet;
#X obj 282 -19 inlet;
#X obj 169 157 outlet;
#X connect 0 0 6 0;
#X connect 1 0 2 0;
#X connect 2 0 3 0;
#X connect 2 1 0 0;
#X connect 3 0 0 0;
#X connect 4 0 1 0;
#X connect 5 0 3 1;
