#N canvas 74 145 458 346 10;
#X obj 23 41 inlet;
#X obj 167 44 inlet;
#X text 166 19 el_time;
#X obj 22 290 textfile;
#X msg 23 121 add \$1;
#X obj 308 57 inlet;
#X text 22 15 valor a guardar;
#X text 308 38 reset;
#X obj 155 114 f;
#X obj 181 68 r el_time;
#X obj 351 57 r reset;
#X obj 156 147 list append \$1;
#X msg 156 177 write data/\$2_\$1ms.txt cr \, clear;
#X connect 0 0 4 0;
#X connect 1 0 8 1;
#X connect 4 0 3 0;
#X connect 5 0 8 0;
#X connect 8 0 11 0;
#X connect 9 0 8 1;
#X connect 10 0 8 0;
#X connect 11 0 12 0;
#X connect 12 0 3 0;
