#N canvas 683 0 667 709 10;
#X obj -538 -1410 timer;
#X obj -419 -1411 cputime;
#X obj -306 -1412 realtime;
#X floatatom -416 -1511 5 0 0 0 - - -;
#X obj -477 -1537 tgl 15 0 empty empty empty 17 7 0 10 -262144 -1 -1
0 1;
#X msg -453 -1633 100;
#X obj -477 -1488 metro 500;
#X msg -491 -1634 200;
#X msg -527 -1634 1000;
#X msg -561 -1634 5000;
#X msg -419 -1633 50;
#X floatatom -538 -1376 5 0 0 0 - - -;
#X msg -380 -1633 10;
#X msg -341 -1634 5;
#X msg -303 -1634 3;
#X text 911 510 updated for Pd version 0.33;
#X obj -600 -1642 tgl 15 0 empty empty empty 17 7 0 10 -262144 -1 -1
0 1;
#X floatatom -419 -1377 5 0 0 0 - - -;
#X floatatom -306 -1377 5 0 0 0 - - -;
#X obj -403 -1485 s el_time;
#X obj -503 -1336 r el_time;
#X obj -443 -1539 t b f;
#X obj -513 -1452 t b b b b b b;
#X obj -385 -1336 r el_time;
#X obj -265 -1333 r el_time;
#X obj -538 -1292 save_data_timer;
#X obj -419 -1292 save_data_cpu;
#X obj -307 -1293 save_data_rtime;
#X connect 0 0 11 0;
#X connect 1 0 17 0;
#X connect 2 0 18 0;
#X connect 3 0 6 1;
#X connect 3 0 19 0;
#X connect 4 0 6 0;
#X connect 5 0 21 0;
#X connect 6 0 22 0;
#X connect 7 0 21 0;
#X connect 8 0 21 0;
#X connect 9 0 21 0;
#X connect 10 0 21 0;
#X connect 11 0 25 0;
#X connect 12 0 21 0;
#X connect 13 0 21 0;
#X connect 14 0 21 0;
#X connect 17 0 26 0;
#X connect 18 0 27 0;
#X connect 20 0 25 1;
#X connect 21 1 3 0;
#X connect 22 0 0 0;
#X connect 22 1 0 1;
#X connect 22 2 1 0;
#X connect 22 3 1 1;
#X connect 22 4 2 0;
#X connect 22 5 2 1;
#X connect 23 0 26 1;
#X connect 24 0 27 1;
