#N canvas 683 0 667 709 10;
#X obj -538 -1410 timer;
#X obj -494 -1410 cputime;
#X obj -439 -1410 realtime;
#X floatatom -416 -1511 5 0 0 0 - - -;
#X obj -477 -1537 tgl 15 0 empty empty empty 17 7 0 10 -262144 -1 -1
0 1;
#X msg -453 -1633 100;
#X obj -477 -1488 metro 500;
#X msg -491 -1634 200;
#X msg -527 -1634 1000;
#X msg -561 -1634 5000;
#X msg -419 -1633 50;
#X floatatom -538 -1376 5 0 0 0 - - -;
#X msg -380 -1633 10;
#X msg -341 -1634 5;
#X msg -303 -1634 3;
#X obj -513 -929 print done;
#X text -289 -1131 write one;
#X obj -569 -980 textfile;
#X msg -506 -1129 write /tmp/textfile.txt;
#X msg -506 -1102 write /tmp/textfile2.txt cr;
#X text -497 -1081 write a file \, terminating lines only with carriage
return (omitting semicolons.) You can read files this way too \, in
which case carriage returns are mapped to semicolons.;
#X obj -569 -907 print list;
#X msg -507 -1033 read textfile.txt cr;
#X text -353 -1262 empty the object;
#X text -353 -1234 add a message;
#X text -569 -881 this outlet gets the lines in sequence.;
#X text -482 -960 This outlet gets a bang when you hit the end of the
sequence.;
#X msg -508 -1236 add cis boom bah;
#X msg -508 -1006 print;
#X text -454 -1003 debugging printout;
#X text 911 510 updated for Pd version 0.33;
#X obj -600 -1642 tgl 15 0 empty empty empty 17 7 0 10 -262144 -1 -1
0 1;
#X floatatom -494 -1376 5 0 0 0 - - -;
#X floatatom -439 -1375 5 0 0 0 - - -;
#X obj -403 -1485 s el_time;
#X obj -257 -1413 r el_time;
#X obj -443 -1539 t b f;
#X obj -466 -1511 s reset;
#N canvas 228 94 450 300 save_data 1;
#X obj 63 32 inlet;
#X obj 113 257 outlet;
#X obj 127 30 inlet;
#X obj 187 32 inlet;
#X obj 256 30 inlet;
#X obj 13 164 textfile;
#X msg 19 101 add;
#X connect 0 0 6 0;
#X connect 2 0 6 0;
#X connect 3 0 6 0;
#X connect 6 0 5 0;
#X restore -462 -1274 pd save_data;
#X obj -307 -1413 r rest;
#X connect 0 0 11 0;
#X connect 1 0 32 0;
#X connect 2 0 33 0;
#X connect 3 0 6 1;
#X connect 3 0 34 0;
#X connect 4 0 6 0;
#X connect 5 0 36 0;
#X connect 6 0 0 1;
#X connect 6 0 0 0;
#X connect 6 0 1 0;
#X connect 6 0 1 1;
#X connect 6 0 2 0;
#X connect 6 0 2 1;
#X connect 7 0 36 0;
#X connect 8 0 36 0;
#X connect 9 0 36 0;
#X connect 10 0 36 0;
#X connect 12 0 36 0;
#X connect 13 0 36 0;
#X connect 14 0 36 0;
#X connect 17 0 21 0;
#X connect 17 1 15 0;
#X connect 18 0 17 0;
#X connect 19 0 17 0;
#X connect 22 0 17 0;
#X connect 27 0 17 0;
#X connect 28 0 17 0;
#X connect 36 0 37 0;
#X connect 36 1 3 0;
