#N canvas -7 0 656 369 10;
#X text 911 510 updated for Pd version 0.33;
#X msg 138 107 clear;
#X obj 33 25 inlet;
#X obj 212 28 inlet;
#X text 211 8 el_time;
#X obj 32 274 textfile;
#X msg 33 105 add \$1;
#X text 33 10 var;
#X text 463 23 open panel si no funciona;
#X obj 212 69 t b f;
#X obj 356 29 inlet;
#X text 357 9 var;
#X msg 239 106 write data/data_\$2_eltime-\$1.txt;
#X connect 1 0 5 0;
#X connect 2 0 6 0;
#X connect 3 0 9 0;
#X connect 6 0 5 0;
#X connect 9 0 1 0;
#X connect 9 1 12 0;
#X connect 10 0 12 0;
#X connect 12 0 5 0;
