#N canvas 1147 528 401 288 10;
#X obj 257 113 loadbang;
#X obj 31 35 adc~;
#X obj 44 195 dac~;
#X obj 204 19 hsl 128 15 10 500 1 0 empty empty empty -2 -8 0 10 -262144
-1 -1 0 1;
#X floatatom 218 42 5 0 0 0 - - -;
#X obj 74 36 tgl 15 0 empty empty empty 17 7 0 10 -262144 -1 -1 0 1
;
#X obj 28 70 *~ 0;
#X obj 63 70 *~ 0;
#X obj 117 -28 bng 15 250 50 0 empty empty empty 17 7 0 10 -262144
-1 -1;
#X obj 168 67 del 50;
#X obj 111 93 ead~ 0 10;
#X obj 96 116 noise~;
#X obj 96 153 *~;
#X obj 117 1 t b b b;
#X msg 257 140 \; pd dsp 1;
#X text 140 -30 RUN!;
#X text 205 0 Short burst to avoid feedback;
#X connect 0 0 14 0;
#X connect 1 0 6 0;
#X connect 1 1 7 0;
#X connect 3 0 4 0;
#X connect 3 0 9 1;
#X connect 5 0 6 1;
#X connect 5 0 7 1;
#X connect 6 0 2 0;
#X connect 7 0 2 1;
#X connect 8 0 13 0;
#X connect 9 0 5 0;
#X connect 10 0 12 1;
#X connect 11 0 12 0;
#X connect 12 0 2 1;
#X connect 12 0 2 0;
#X connect 13 0 10 0;
#X connect 13 1 5 0;
#X connect 13 2 9 0;
